<svg width="190" height="52" viewBox="0 0 190 52" fill="none" xmlns="http://www.w3.org/2000/svg">
<g clip-path="url(#clip0_3_29)">
<path d="M26 2.0625C25.8 2.0625 25.575 2.0875 25.375 2.1875L13.375 10.1875C12.975 10.3875 13 10.7875 13 11.1875C13 11.5875 13.6 12 14 12H15.0625L0.999974 21.375C0.199974 21.775 -0.0125259 22.825 0.187474 23.625C0.387474 24.425 1.18747 25 2.18747 25H5.18747C6.18747 25.8 7.98747 27 11.1875 27C13.3875 27 14.9875 26.0125 16.1875 24.8125C17.3875 26.0125 18.9875 27 21.1875 27C23.3875 27 24.9875 26.0125 26.1875 24.8125C27.3875 26.0125 28.9875 27 31.1875 27C33.3875 27 34.9875 26.0125 36.1875 24.8125C37.3875 26.0125 38.9875 27 41.1875 27C42.2945 27 43.2032 26.846 44 26.625V41H32V29.1875H31C29.2 29.1875 27.4 28.6125 26 27.8125C24.6 28.8125 22.8 29.1875 21 29.1875C19.2 29.1875 17.4 28.8125 16 27.8125C14.6 28.8125 12.8 29.1875 11 29.1875C7.79997 29.1875 5.57497 28.1875 4.37497 27.1875H3.99997V47C3.99997 48.2 4.79997 49 5.99997 49H46C47.2 49 48 48.2 48 47V43.3125C48.0081 43.2085 48.0081 43.104 48 43V25H50C50.8 25 51.6 24.425 52 23.625C52.2 22.825 51.7875 21.775 51.1875 21.375L37.125 12H38C38.4 12 38.8 11.7875 39 11.1875C39.2 10.5875 39.025 10.3875 38.625 10.1875L26.625 2.1875C26.425 2.0875 26.2 2.0625 26 2.0625ZM14 31H22V39H14V31Z" fill="white"/>
</g>
<path d="M62.1719 35V16.8182H70.0554C71.4403 16.8182 72.6033 17.0046 73.5444 17.3775C74.4914 17.7504 75.2045 18.2771 75.6839 18.9577C76.1693 19.6384 76.4119 20.4403 76.4119 21.3636C76.4119 22.0324 76.264 22.642 75.968 23.1925C75.678 23.7429 75.2697 24.2045 74.7429 24.5774C74.2161 24.9444 73.6006 25.1989 72.8963 25.3409V25.5185C73.6776 25.5481 74.3878 25.7463 75.027 26.1133C75.6662 26.4743 76.1752 26.9744 76.554 27.6136C76.9328 28.2469 77.1222 28.9927 77.1222 29.8509C77.1222 30.8452 76.8617 31.73 76.3409 32.5053C75.826 33.2807 75.0921 33.8903 74.1392 34.3342C73.1863 34.7781 72.05 35 70.7301 35H62.1719ZM67.108 31.0582H69.4162C70.2448 31.0582 70.8662 30.9044 71.2805 30.5966C71.6948 30.2829 71.902 29.8213 71.902 29.2116C71.902 28.7855 71.8043 28.4245 71.609 28.1286C71.4137 27.8326 71.1355 27.6077 70.7745 27.4538C70.4194 27.3 69.9903 27.223 69.4872 27.223H67.108V31.0582ZM67.108 24.169H69.1321C69.5642 24.169 69.9459 24.101 70.2773 23.9648C70.6088 23.8287 70.8662 23.6334 71.0497 23.3789C71.2391 23.1185 71.3338 22.8018 71.3338 22.429C71.3338 21.8667 71.1326 21.4376 70.7301 21.1417C70.3277 20.8398 69.8187 20.6889 69.2031 20.6889H67.108V24.169ZM87.7844 29.0341V21.3636H92.685V35H88.033V32.4077H87.891C87.5951 33.2777 87.0772 33.9583 86.3374 34.4496C85.5975 34.9349 84.7186 35.1776 83.7006 35.1776C82.7478 35.1776 81.9132 34.9586 81.1971 34.5206C80.4869 34.0826 79.9335 33.4789 79.5369 32.7095C79.1463 31.9401 78.948 31.0582 78.9421 30.0639V21.3636H83.8427V29.0341C83.8486 29.7088 84.0202 30.2385 84.3576 30.6232C84.7009 31.0079 85.1803 31.2003 85.7958 31.2003C86.2042 31.2003 86.5563 31.1145 86.8523 30.9428C87.1541 30.7653 87.3849 30.5167 87.5447 30.1971C87.7105 29.8716 87.7904 29.4839 87.7844 29.0341ZM100.078 27.3295V35H95.1775V21.3636H99.8295V23.956H99.9715C100.267 23.0919 100.788 22.4142 101.534 21.9229C102.286 21.4317 103.162 21.1861 104.162 21.1861C105.127 21.1861 105.964 21.408 106.674 21.8519C107.39 22.2899 107.944 22.8936 108.334 23.663C108.731 24.4324 108.926 25.3113 108.92 26.2997V35H104.02V27.3295C104.026 26.6548 103.854 26.1251 103.505 25.7404C103.162 25.3557 102.682 25.1634 102.067 25.1634C101.664 25.1634 101.312 25.2521 101.01 25.4297C100.714 25.6013 100.486 25.8499 100.327 26.1754C100.167 26.495 100.084 26.8797 100.078 27.3295ZM117.909 40.3977C116.542 40.3977 115.37 40.2024 114.394 39.8118C113.423 39.4271 112.668 38.8944 112.13 38.2138C111.597 37.5391 111.298 36.7637 111.233 35.8878H115.956C116.003 36.1778 116.122 36.4116 116.311 36.5891C116.501 36.7667 116.743 36.8939 117.039 36.9709C117.341 37.0537 117.678 37.0952 118.051 37.0952C118.685 37.0952 119.208 36.9413 119.623 36.6335C120.043 36.3258 120.253 35.7694 120.253 34.9645V32.6562H120.111C119.933 33.1179 119.661 33.5115 119.294 33.837C118.927 34.1566 118.486 34.4022 117.971 34.5739C117.456 34.7396 116.891 34.8224 116.276 34.8224C115.305 34.8224 114.411 34.5975 113.595 34.1477C112.784 33.6979 112.133 32.9847 111.641 32.0082C111.156 31.0316 110.913 29.7562 110.913 28.1818C110.913 26.5365 111.168 25.1989 111.677 24.169C112.192 23.1392 112.855 22.3846 113.666 21.9052C114.482 21.4258 115.341 21.1861 116.24 21.1861C116.915 21.1861 117.507 21.3045 118.016 21.5412C118.525 21.772 118.951 22.0827 119.294 22.4734C119.637 22.8581 119.898 23.2812 120.075 23.7429H120.182V21.3636H125.082V34.9645C125.082 36.1186 124.784 37.0981 124.186 37.9031C123.594 38.7139 122.759 39.3324 121.682 39.7585C120.605 40.1847 119.347 40.3977 117.909 40.3977ZM118.087 31.3423C118.537 31.3423 118.921 31.218 119.241 30.9695C119.566 30.715 119.815 30.3539 119.987 29.8864C120.164 29.4129 120.253 28.8447 120.253 28.1818C120.253 27.5071 120.164 26.93 119.987 26.4506C119.815 25.9653 119.566 25.5954 119.241 25.3409C118.921 25.0805 118.537 24.9503 118.087 24.9503C117.637 24.9503 117.252 25.0805 116.933 25.3409C116.619 25.5954 116.376 25.9653 116.205 26.4506C116.039 26.93 115.956 27.5071 115.956 28.1818C115.956 28.8565 116.039 29.4306 116.205 29.9041C116.376 30.3717 116.619 30.7298 116.933 30.9783C117.252 31.221 117.637 31.3423 118.087 31.3423ZM134.145 35.2486C132.665 35.2486 131.398 34.9556 130.345 34.3697C129.291 33.7778 128.483 32.9551 127.921 31.9016C127.359 30.8422 127.078 29.6141 127.078 28.2173C127.078 26.8205 127.359 25.5954 127.921 24.5419C128.483 23.4825 129.291 22.6598 130.345 22.0739C131.398 21.482 132.665 21.1861 134.145 21.1861C135.624 21.1861 136.891 21.482 137.944 22.0739C138.998 22.6598 139.806 23.4825 140.368 24.5419C140.93 25.5954 141.211 26.8205 141.211 28.2173C141.211 29.6141 140.93 30.8422 140.368 31.9016C139.806 32.9551 138.998 33.7778 137.944 34.3697C136.891 34.9556 135.624 35.2486 134.145 35.2486ZM134.18 31.6264C134.594 31.6264 134.952 31.4873 135.254 31.2092C135.556 30.931 135.79 30.5344 135.956 30.0195C136.121 29.5046 136.204 28.892 136.204 28.1818C136.204 27.4657 136.121 26.8531 135.956 26.3441C135.79 25.8292 135.556 25.4326 135.254 25.1545C134.952 24.8763 134.594 24.7372 134.18 24.7372C133.742 24.7372 133.366 24.8763 133.053 25.1545C132.739 25.4326 132.499 25.8292 132.333 26.3441C132.168 26.8531 132.085 27.4657 132.085 28.1818C132.085 28.892 132.168 29.5046 132.333 30.0195C132.499 30.5344 132.739 30.931 133.053 31.2092C133.366 31.4873 133.742 31.6264 134.18 31.6264ZM148.1 16.8182V35H143.2V16.8182H148.1ZM157.167 35.2486C155.687 35.2486 154.421 34.9556 153.367 34.3697C152.314 33.7778 151.506 32.9551 150.944 31.9016C150.381 30.8422 150.1 29.6141 150.1 28.2173C150.1 26.8205 150.381 25.5954 150.944 24.5419C151.506 23.4825 152.314 22.6598 153.367 22.0739C154.421 21.482 155.687 21.1861 157.167 21.1861C158.647 21.1861 159.913 21.482 160.967 22.0739C162.02 22.6598 162.828 23.4825 163.39 24.5419C163.953 25.5954 164.234 26.8205 164.234 28.2173C164.234 29.6141 163.953 30.8422 163.39 31.9016C162.828 32.9551 162.02 33.7778 160.967 34.3697C159.913 34.9556 158.647 35.2486 157.167 35.2486ZM157.203 31.6264C157.617 31.6264 157.975 31.4873 158.277 31.2092C158.579 30.931 158.812 30.5344 158.978 30.0195C159.144 29.5046 159.227 28.892 159.227 28.1818C159.227 27.4657 159.144 26.8531 158.978 26.3441C158.812 25.8292 158.579 25.4326 158.277 25.1545C157.975 24.8763 157.617 24.7372 157.203 24.7372C156.765 24.7372 156.389 24.8763 156.075 25.1545C155.761 25.4326 155.522 25.8292 155.356 26.3441C155.19 26.8531 155.107 27.4657 155.107 28.1818C155.107 28.892 155.19 29.5046 155.356 30.0195C155.522 30.5344 155.761 30.931 156.075 31.2092C156.389 31.4873 156.765 31.6264 157.203 31.6264ZM178.687 25.8026H174.177C174.153 25.5244 174.056 25.2847 173.884 25.0835C173.712 24.8822 173.49 24.7283 173.218 24.6218C172.952 24.5094 172.656 24.4531 172.33 24.4531C171.91 24.4531 171.549 24.5301 171.247 24.6839C170.945 24.8378 170.797 25.0568 170.803 25.3409C170.797 25.5421 170.883 25.7286 171.061 25.9002C171.244 26.0719 171.596 26.205 172.117 26.2997L174.887 26.7969C176.284 27.0514 177.323 27.4805 178.003 28.0842C178.69 28.6819 179.036 29.4839 179.042 30.4901C179.036 31.4607 178.746 32.3041 178.172 33.0202C177.604 33.7305 176.825 34.2809 175.837 34.6715C174.855 35.0562 173.733 35.2486 172.472 35.2486C170.389 35.2486 168.758 34.8224 167.581 33.9702C166.409 33.1179 165.755 31.9934 165.619 30.5966H170.484C170.549 31.0286 170.762 31.363 171.123 31.5998C171.49 31.8306 171.952 31.946 172.508 31.946C172.958 31.946 173.328 31.8691 173.618 31.7152C173.914 31.5613 174.064 31.3423 174.07 31.0582C174.064 30.7978 173.934 30.5907 173.68 30.4368C173.431 30.2829 173.041 30.1586 172.508 30.0639L170.093 29.6378C168.702 29.3951 167.661 28.9335 166.968 28.2528C166.276 27.5722 165.932 26.6963 165.938 25.625C165.932 24.678 166.181 23.8761 166.684 23.2191C167.193 22.5562 167.918 22.0531 168.859 21.7099C169.806 21.3607 170.928 21.1861 172.224 21.1861C174.195 21.1861 175.748 21.5945 176.885 22.4112C178.027 23.228 178.628 24.3584 178.687 25.8026ZM189.052 21.3636V24.9148H180.067V21.3636H189.052ZM181.807 18.0966H186.708V30.6143C186.708 30.8037 186.741 30.9635 186.806 31.0938C186.871 31.218 186.971 31.3127 187.108 31.3778C187.244 31.437 187.418 31.4666 187.631 31.4666C187.779 31.4666 187.951 31.4489 188.146 31.4134C188.347 31.3778 188.495 31.3482 188.59 31.3246L189.3 34.7692C189.081 34.8343 188.768 34.9142 188.359 35.0089C187.957 35.1036 187.477 35.1657 186.921 35.1953C185.797 35.2545 184.853 35.1391 184.089 34.8491C183.326 34.5531 182.751 34.0885 182.367 33.4553C181.982 32.822 181.796 32.0289 181.807 31.076V18.0966Z" fill="white"/>
<defs>
<clipPath id="clip0_3_29">
<rect width="52" height="52" fill="white"/>
</clipPath>
</defs>
</svg>
